<svg width="30" height="30" viewBox="0 0 30 30" fill="none" xmlns="http://www.w3.org/2000/svg">
<path d="M23.75 13.7499H8.925L13.4625 8.29986C13.6747 8.04459 13.7768 7.71548 13.7463 7.38495C13.7158 7.05442 13.5553 6.74953 13.3 6.53736C13.0447 6.32518 12.7156 6.22311 12.3851 6.25358C12.0546 6.28406 11.7497 6.44459 11.5375 6.69986L5.2875 14.1999C5.24545 14.2595 5.20785 14.3222 5.175 14.3874C5.175 14.4499 5.175 14.4874 5.0875 14.5499C5.03084 14.6932 5.00118 14.8457 5 14.9999C5.00118 15.154 5.03084 15.3065 5.0875 15.4499C5.0875 15.5124 5.0875 15.5499 5.175 15.6124C5.20785 15.6775 5.24545 15.7402 5.2875 15.7999L11.5375 23.2999C11.655 23.441 11.8022 23.5544 11.9686 23.6322C12.1349 23.71 12.3164 23.7502 12.5 23.7499C12.7921 23.7504 13.0751 23.6487 13.3 23.4624C13.4266 23.3574 13.5312 23.2285 13.6079 23.0831C13.6846 22.9377 13.7318 22.7785 13.7469 22.6148C13.762 22.4511 13.7447 22.286 13.6959 22.129C13.6471 21.972 13.5678 21.8262 13.4625 21.6999L8.925 16.2499H23.75C24.0815 16.2499 24.3995 16.1182 24.6339 15.8837C24.8683 15.6493 25 15.3314 25 14.9999C25 14.6683 24.8683 14.3504 24.6339 14.116C24.3995 13.8816 24.0815 13.7499 23.75 13.7499Z" fill="#F53838"/>
</svg>
