<svg width="12" height="13" viewBox="0 0 12 13" fill="none" xmlns="http://www.w3.org/2000/svg">
<path d="M5.74098 1.84769C3.15036 1.84769 1.04272 3.95532 1.04272 6.54594C1.04272 9.13656 3.15036 11.2442 5.74098 11.2442C8.3316 11.2442 10.4392 9.13656 10.4392 6.54594C10.4392 3.95532 8.3316 1.84769 5.74098 1.84769ZM4.8018 8.61928L3.38972 7.21024C3.20613 7.02705 3.20576 6.72974 3.38889 6.54609C3.57213 6.36233 3.86967 6.36199 4.05333 6.54533L4.80086 7.29156L6.95595 5.13647C7.1394 4.95302 7.43683 4.95302 7.62028 5.13647C7.80374 5.31992 7.80374 5.61735 7.62028 5.8008L4.8018 8.61928Z" fill="#2FAB73"/>
</svg>
