<svg width="25" height="24" viewBox="0 0 25 24" fill="none" xmlns="http://www.w3.org/2000/svg">
<path d="M10.5805 16.73C10.4492 16.7303 10.3192 16.7046 10.1979 16.6545C10.0765 16.6044 9.96629 16.5308 9.87347 16.438L5.63147 12.195C5.5359 12.1028 5.45964 11.9925 5.40715 11.8706C5.35465 11.7486 5.32697 11.6174 5.32573 11.4846C5.32448 11.3518 5.34969 11.2201 5.39988 11.0972C5.45008 10.9743 5.52425 10.8626 5.61808 10.7686C5.7119 10.6747 5.8235 10.6003 5.94636 10.55C6.06922 10.4996 6.20088 10.4742 6.33366 10.4753C6.46644 10.4763 6.59768 10.5038 6.71972 10.5561C6.84176 10.6085 6.95216 10.6846 7.04447 10.78L10.5795 14.315L16.9445 7.952C17.132 7.76436 17.3863 7.65889 17.6516 7.6588C17.9169 7.6587 18.1713 7.76399 18.359 7.9515C18.5466 8.13901 18.6521 8.39338 18.6522 8.65865C18.6523 8.92392 18.547 9.17836 18.3595 9.366L11.2875 16.438C11.1946 16.5308 11.0844 16.6044 10.9631 16.6545C10.8418 16.7046 10.7117 16.7303 10.5805 16.73V16.73Z" fill="#2FAB73"/>
</svg>
