<svg width="8" height="10" viewBox="0 0 8 10" fill="none" xmlns="http://www.w3.org/2000/svg">
<path d="M7.5504 3.66749C7.5504 3.2356 7.46533 2.80794 7.30006 2.40893C7.13478 2.00991 6.89253 1.64736 6.58714 1.34197C6.28175 1.03658 5.91919 0.794328 5.52018 0.629051C5.12117 0.463775 4.69351 0.378708 4.26162 0.378708C3.82973 0.378708 3.40207 0.463775 3.00306 0.629051C2.60404 0.794328 2.24149 1.03658 1.9361 1.34197C1.63071 1.64736 1.38846 2.00991 1.22318 2.40893C1.05791 2.80794 0.972839 3.2356 0.972839 3.66749C0.972839 4.31914 1.16547 4.92521 1.492 5.43638H1.48824C2.59703 7.17239 4.26162 9.77522 4.26162 9.77522L7.035 5.43638H7.03171C7.37018 4.90847 7.55019 4.29458 7.5504 3.66749ZM4.26162 5.07696C3.8878 5.07696 3.5293 4.92847 3.26497 4.66414C3.00064 4.39981 2.85214 4.0413 2.85214 3.66749C2.85214 3.29367 3.00064 2.93517 3.26497 2.67084C3.5293 2.40651 3.8878 2.25801 4.26162 2.25801C4.63544 2.25801 4.99394 2.40651 5.25827 2.67084C5.5226 2.93517 5.6711 3.29367 5.6711 3.66749C5.6711 4.0413 5.5226 4.39981 5.25827 4.66414C4.99394 4.92847 4.63544 5.07696 4.26162 5.07696Z" fill="#F53838"/>
</svg>
