<svg width="135" height="16" viewBox="0 0 135 16" fill="none" xmlns="http://www.w3.org/2000/svg">
<circle cx="67.5" cy="8" r="7.5" fill="#DDE0E4"/>
<circle cx="97.5" cy="8" r="7.5" fill="#DDE0E4"/>
<circle cx="127.5" cy="8" r="7.5" fill="#DDE0E4"/>
<path fill-rule="evenodd" clip-rule="evenodd" d="M7.55721 15.4998C7.53816 15.4999 7.51909 15.5 7.5 15.5C7.48091 15.5 7.46184 15.4999 7.44279 15.4998H6.9469V15.4799C3.06303 15.1968 0 11.9561 0 8C0 4.04389 3.06303 0.80319 6.9469 0.520085V0.5H7.5H37.0841V0.511337C37.2218 0.503812 37.3604 0.5 37.5 0.5C41.6421 0.5 45 3.85786 45 8C45 12.1421 41.6421 15.5 37.5 15.5C37.3604 15.5 37.2218 15.4962 37.0841 15.4887V15.4998H7.55721Z" fill="#F53838"/>
</svg>
