<svg width="8" height="9" viewBox="0 0 8 9" fill="none" xmlns="http://www.w3.org/2000/svg">
<path fill-rule="evenodd" clip-rule="evenodd" d="M4.20429 3.51316C4.65287 3.51316 5.08307 3.33496 5.40027 3.01777C5.71746 2.70058 5.89566 2.27037 5.89566 1.82179C5.89566 1.37321 5.71746 0.943002 5.40027 0.625808C5.08307 0.308615 4.65287 0.130417 4.20429 0.130417C3.75571 0.130417 3.3255 0.308615 3.00831 0.625808C2.69111 0.943002 2.51291 1.37321 2.51291 1.82179C2.51291 2.27037 2.69111 2.70058 3.00831 3.01777C3.3255 3.33496 3.75571 3.51316 4.20429 3.51316ZM1.80754 8.58728C0.951618 8.58728 0.230615 7.86778 0.558164 7.077C0.756496 6.59819 1.0472 6.16313 1.41366 5.79666C1.78013 5.43019 2.2152 5.13949 2.69401 4.94116C3.17283 4.74282 3.68602 4.64074 4.20429 4.64074C4.72255 4.64074 5.23575 4.74282 5.71456 4.94116C6.19338 5.13949 6.62844 5.43019 6.99491 5.79666C7.36138 6.16313 7.65208 6.59819 7.85041 7.077C8.17796 7.86778 7.45696 8.58728 6.60103 8.58728H1.80754Z" fill="#F53838"/>
</svg>
