<svg width="10" height="10" viewBox="0 0 10 10" fill="none" xmlns="http://www.w3.org/2000/svg">
<path d="M8.94405 0.848511H1.42683C1.17762 0.848511 0.938619 0.947509 0.7624 1.12373C0.586181 1.29995 0.487183 1.53895 0.487183 1.78816V3.66746C0.487183 3.91668 0.586181 4.15568 0.7624 4.3319C0.938619 4.50812 1.17762 4.60712 1.42683 4.60712H8.94405C9.19326 4.60712 9.43226 4.50812 9.60848 4.3319C9.7847 4.15568 9.8837 3.91668 9.8837 3.66746V1.78816C9.8837 1.53895 9.7847 1.29995 9.60848 1.12373C9.43226 0.947509 9.19326 0.848511 8.94405 0.848511ZM6.59492 2.72781C6.59492 2.98729 6.38457 3.19764 6.12509 3.19764C5.86561 3.19764 5.65527 2.98729 5.65527 2.72781C5.65527 2.46834 5.86561 2.25799 6.12509 2.25799C6.38457 2.25799 6.59492 2.46834 6.59492 2.72781ZM8.47422 2.72781C8.47422 2.98729 8.26387 3.19764 8.00439 3.19764C7.74492 3.19764 7.53457 2.98729 7.53457 2.72781C7.53457 2.46834 7.74492 2.25799 8.00439 2.25799C8.26387 2.25799 8.47422 2.46834 8.47422 2.72781ZM8.94405 5.54677H1.42683C1.17762 5.54677 0.938619 5.64577 0.7624 5.82198C0.586181 5.9982 0.487183 6.23721 0.487183 6.48642V8.36572C0.487183 8.61493 0.586181 8.85394 0.7624 9.03015C0.938619 9.20637 1.17762 9.30537 1.42683 9.30537H8.94405C9.19326 9.30537 9.43226 9.20637 9.60848 9.03015C9.7847 8.85394 9.8837 8.61493 9.8837 8.36572V6.48642C9.8837 6.23721 9.7847 5.9982 9.60848 5.82198C9.43226 5.64577 9.19326 5.54677 8.94405 5.54677ZM6.59492 7.42607C6.59492 7.68555 6.38457 7.8959 6.12509 7.8959C5.86561 7.8959 5.65527 7.68555 5.65527 7.42607C5.65527 7.16659 5.86561 6.95624 6.12509 6.95624C6.38457 6.95624 6.59492 7.16659 6.59492 7.42607ZM8.47422 7.42607C8.47422 7.68555 8.26387 7.8959 8.00439 7.8959C7.74492 7.8959 7.53457 7.68555 7.53457 7.42607C7.53457 7.16659 7.74492 6.95624 8.00439 6.95624C8.26387 6.95624 8.47422 7.16659 8.47422 7.42607Z" fill="#F53838"/>
</svg>
